<?xml version="1.0" standalone="no"?>
<!DOCTYPE svg PUBLIC "-//W3C//DTD SVG 20010904//EN"
 "http://www.w3.org/TR/2001/REC-SVG-20010904/DTD/svg10.dtd">
<svg version="1.0" xmlns="http://www.w3.org/2000/svg"
 width="234.000000pt" height="234.000000pt" viewBox="0 0 234.000000 234.000000"
 preserveAspectRatio="xMidYMid meet">
<metadata>
Created by potrace 1.14, written by Peter Selinger 2001-2017
</metadata>
<g transform="translate(0.000000,234.000000) scale(0.100000,-0.100000)"
fill="#000000" stroke="none">
<path d="M1015 2326 c-51 -19 -112 -86 -126 -140 -21 -76 9 -179 59 -201 12
-5 22 -13 22 -17 0 -3 16 -12 35 -18 30 -10 35 -16 36 -43 1 -49 -1 -171 -4
-173 -1 -1 -40 21 -87 50 l-85 51 -1 55 c-2 59 -26 126 -53 147 -103 83 -234
71 -312 -28 -60 -76 -49 -199 26 -269 65 -61 192 -68 262 -14 28 21 39 25 52
16 9 -6 58 -36 109 -67 84 -51 92 -59 93 -88 2 -74 -1 -320 -4 -323 -2 -2 -42
22 -89 54 -83 55 -86 58 -83 92 1 19 -5 60 -15 90 -14 46 -24 59 -61 82 -24
15 -57 29 -73 32 -16 3 -30 7 -33 9 -7 8 -86 -13 -130 -34 -32 -16 -49 -19
-70 -12 -25 9 -27 14 -28 69 -4 123 -81 205 -194 206 -125 0 -225 -109 -208
-230 11 -86 95 -166 182 -175 48 -5 113 13 154 42 26 19 33 20 51 9 22 -14 23
-15 20 -75 -3 -85 66 -180 148 -202 71 -20 179 10 205 56 7 12 14 10 42 -11
19 -14 36 -26 40 -26 3 0 15 -8 25 -18 11 -10 40 -28 65 -41 24 -12 47 -27 51
-33 8 -12 8 -338 0 -345 -3 -3 -42 19 -88 48 -71 44 -84 57 -83 78 1 38 -25
113 -49 139 -60 67 -161 82 -251 37 l-54 -28 -27 20 c-23 17 -28 28 -29 72 -5
122 -84 205 -195 204 -159 -2 -255 -161 -182 -301 20 -40 82 -89 122 -97 73
-16 168 4 194 41 11 14 15 14 42 -2 29 -16 30 -19 26 -78 -5 -86 25 -140 97
-180 84 -45 172 -38 249 20 l33 25 47 -22 c92 -44 152 -88 153 -112 0 -25 0
-315 -1 -334 0 -9 -11 -8 -37 5 -21 10 -61 29 -90 43 -51 24 -52 25 -49 64 4
50 -23 129 -54 163 -65 66 -185 76 -263 20 l-28 -20 -32 22 c-29 20 -32 27
-33 73 -3 149 -156 235 -292 165 -147 -76 -146 -286 3 -358 76 -37 178 -25
230 28 19 18 22 18 47 4 22 -13 25 -20 21 -48 -11 -68 5 -119 53 -167 59 -60
110 -78 186 -62 31 6 71 23 90 37 l33 26 105 -56 c58 -30 106 -56 108 -57 1
-1 3 -41 4 -89 l1 -86 47 0 47 0 0 70 c1 39 2 78 2 89 1 10 13 25 29 32 15 8
60 34 100 58 l73 44 22 -20 c12 -11 32 -25 43 -31 30 -16 134 -31 134 -20 0 5
3 7 8 4 11 -7 64 19 93 45 14 13 33 41 43 61 17 38 24 117 12 136 -7 12 45 52
67 52 9 0 19 -5 22 -10 12 -19 80 -42 126 -41 117 0 199 87 199 210 0 78 -56
158 -127 182 -49 16 -61 17 -112 7 -66 -12 -116 -51 -147 -114 -22 -46 -25
-62 -20 -104 4 -30 3 -50 -3 -50 -5 0 -17 -8 -26 -17 -15 -14 -20 -15 -39 -3
-74 48 -162 58 -221 27 -75 -39 -129 -132 -120 -206 3 -24 -2 -33 -34 -55 -20
-14 -43 -26 -49 -26 -7 0 -24 -8 -38 -17 -17 -11 -28 -13 -32 -6 -6 9 -7 241
-3 335 1 11 22 28 54 44 28 15 54 29 57 33 3 3 28 16 57 27 37 16 54 19 62 11
16 -16 90 -37 132 -37 49 0 128 25 148 47 26 28 51 99 51 146 0 36 5 47 29 65
l29 21 27 -20 c35 -28 106 -49 147 -43 50 8 116 42 136 72 36 53 56 182 30
198 -4 3 -8 13 -8 23 0 25 -55 80 -97 97 -79 34 -185 9 -240 -54 -31 -36 -50
-98 -48 -150 2 -33 -2 -46 -18 -57 -18 -12 -24 -11 -56 15 -66 52 -158 60
-232 18 -74 -41 -122 -147 -98 -215 7 -18 2 -27 -24 -46 -50 -37 -128 -79
-134 -73 -5 4 -7 261 -4 338 1 10 22 28 53 43 29 15 55 30 58 33 3 4 25 20 49
36 l45 29 45 -26 c89 -49 195 -41 254 21 31 32 58 102 59 152 1 26 8 41 29 58
l28 23 52 -28 c87 -45 197 -29 252 37 85 101 46 278 -70 326 -52 22 -126 20
-174 -6 -76 -39 -112 -98 -114 -186 -1 -91 -12 -99 -82 -61 -76 41 -146 45
-219 11 -73 -33 -108 -92 -107 -179 l0 -61 -76 -51 c-42 -28 -78 -49 -80 -47
-2 1 -3 82 -3 178 -1 172 5 206 34 206 8 0 64 36 78 50 3 3 24 18 47 33 l42
27 47 -30 c151 -95 318 -1 317 179 -1 109 -78 191 -184 197 -72 3 -117 -15
-170 -68 -50 -49 -65 -94 -57 -164 2 -21 -3 -33 -18 -44 -47 -34 -124 -81
-130 -81 -6 1 -9 119 -5 181 1 8 24 26 51 40 60 29 93 86 96 166 3 54 -28 135
-63 166 -44 40 -145 56 -208 34z m136 -81 c37 -19 69 -70 69 -108 0 -134 -172
-187 -240 -74 -68 111 55 242 171 182z m-407 -254 c103 -64 45 -228 -80 -225
-92 3 -155 99 -116 181 31 66 126 87 196 44z m822 3 c64 -30 82 -104 41 -165
-27 -40 -60 -59 -105 -59 -123 0 -173 174 -64 222 48 22 85 22 128 2z m-1236
-243 c64 -44 76 -141 23 -187 -60 -52 -133 -52 -189 1 -28 27 -34 39 -34 75 0
107 114 170 200 111z m1644 7 c73 -39 90 -139 33 -192 -59 -55 -133 -54 -194
1 -24 23 -28 34 -28 79 0 56 15 82 68 114 30 18 84 18 121 -2z m-1236 -228
c84 -51 75 -181 -15 -225 -114 -56 -232 73 -167 183 35 60 120 79 182 42z
m832 4 c86 -52 81 -182 -10 -229 -115 -59 -236 80 -165 189 36 54 119 73 175
40z m-1250 -254 c35 -18 62 -60 67 -102 4 -37 0 -48 -27 -80 -42 -50 -93 -65
-149 -42 -75 30 -104 120 -59 180 12 16 23 31 24 32 1 2 20 10 41 17 36 13 71
11 103 -5z m1661 -6 c30 -15 59 -69 59 -111 0 -55 -53 -110 -112 -117 -71 -7
-139 45 -143 111 -7 106 97 169 196 117z m-403 -221 c74 -54 71 -167 -4 -214
-90 -55 -207 11 -200 112 8 103 125 161 204 102z m-841 -18 c105 -69 58 -240
-66 -239 -102 1 -164 102 -117 192 34 65 121 87 183 47z m1221 -211 c104 -43
111 -169 13 -221 -20 -11 -46 -19 -58 -17 -13 1 -30 2 -38 3 -8 0 -30 15 -49
32 -75 65 -53 171 42 205 47 17 46 17 90 -2z m-1617 -37 c51 -41 61 -91 32
-151 -32 -68 -119 -89 -188 -46 -38 23 -55 57 -55 108 0 48 23 80 74 103 49
22 98 17 137 -14z m390 -217 c30 -14 61 -63 66 -103 10 -93 -88 -153 -190
-116 -70 25 -92 116 -45 182 38 53 104 67 169 37z m836 1 c61 -32 84 -118 48
-179 -46 -76 -197 -67 -231 14 -47 112 76 223 183 165z"/>
</g>
</svg>
