<?xml version="1.0" encoding="windows-1252" standalone="no"?>
<svg xmlns="http://www.w3.org/2000/svg" xmlns:xlink="http://www.w3.org/1999/xlink" contentStyleType="text/css" height="1162px" preserveAspectRatio="none" style="width:1436px;height:1162px;background:#FFFFFF;" version="1.1" viewBox="0 0 1436 1162" width="1436px" zoomAndPan="magnify"><script xmlns=""/><defs/><g><rect fill="#FFFFFF" height="58.2656" style="stroke:#181818;stroke-width:1.0;" width="10" x="935" y="67.4297"/><rect fill="#FFFFFF" height="286.3281" style="stroke:#181818;stroke-width:1.0;" width="10" x="935" y="377.8906"/><rect fill="none" height="749.9297" style="stroke:#000000;stroke-width:1.5;" width="1420" x="10" y="140.6953"/><rect fill="none" height="660.5313" style="stroke:#000000;stroke-width:1.5;" width="1400" x="20" y="223.0938"/><rect fill="none" height="177.6016" style="stroke:#000000;stroke-width:1.5;" width="1207" x="30" y="567.6875"/><rect fill="none" height="148.4688" style="stroke:#000000;stroke-width:1.5;" width="1207" x="30" y="961.8906"/><line style="stroke:#181818;stroke-width:0.5;stroke-dasharray:5.0,5.0;" x1="105" x2="105" y1="36.2969" y2="1127.3594"/><line style="stroke:#181818;stroke-width:0.5;stroke-dasharray:5.0,5.0;" x1="338.5" x2="338.5" y1="36.2969" y2="1127.3594"/><line style="stroke:#181818;stroke-width:0.5;stroke-dasharray:5.0,5.0;" x1="613.5" x2="613.5" y1="36.2969" y2="1127.3594"/><line style="stroke:#181818;stroke-width:0.5;stroke-dasharray:5.0,5.0;" x1="789.5" x2="789.5" y1="36.2969" y2="1127.3594"/><line style="stroke:#181818;stroke-width:0.5;stroke-dasharray:5.0,5.0;" x1="939.5" x2="939.5" y1="36.2969" y2="1127.3594"/><line style="stroke:#181818;stroke-width:0.5;stroke-dasharray:5.0,5.0;" x1="1172" x2="1172" y1="36.2969" y2="1127.3594"/><line style="stroke:#181818;stroke-width:0.5;stroke-dasharray:5.0,5.0;" x1="1327" x2="1327" y1="36.2969" y2="1127.3594"/><rect fill="#E2E2F0" height="30.2969" rx="2.5" ry="2.5" style="stroke:#181818;stroke-width:0.5;" width="131" x="40" y="5"/><text fill="#000000" font-family="sans-serif" font-size="14" lengthAdjust="spacing" textLength="117" x="47" y="24.9951">Multichain Miner</text><rect fill="#E2E2F0" height="30.2969" rx="2.5" ry="2.5" style="stroke:#181818;stroke-width:0.5;" width="131" x="40" y="1126.3594"/><text fill="#000000" font-family="sans-serif" font-size="14" lengthAdjust="spacing" textLength="117" x="47" y="1146.3545">Multichain Miner</text><rect fill="#E2E2F0" height="30.2969" rx="2.5" ry="2.5" style="stroke:#181818;stroke-width:0.5;" width="118" x="279.5" y="5"/><text fill="#000000" font-family="sans-serif" font-size="14" lengthAdjust="spacing" textLength="104" x="286.5" y="24.9951">Technical DAO</text><rect fill="#E2E2F0" height="30.2969" rx="2.5" ry="2.5" style="stroke:#181818;stroke-width:0.5;" width="118" x="279.5" y="1126.3594"/><text fill="#000000" font-family="sans-serif" font-size="14" lengthAdjust="spacing" textLength="104" x="286.5" y="1146.3545">Technical DAO</text><rect fill="#E2E2F0" height="30.2969" rx="2.5" ry="2.5" style="stroke:#181818;stroke-width:0.5;" width="164" x="531.5" y="5"/><text fill="#000000" font-family="sans-serif" font-size="14" lengthAdjust="spacing" textLength="150" x="538.5" y="24.9951">MAXCoin Mining Pool</text><rect fill="#E2E2F0" height="30.2969" rx="2.5" ry="2.5" style="stroke:#181818;stroke-width:0.5;" width="164" x="531.5" y="1126.3594"/><text fill="#000000" font-family="sans-serif" font-size="14" lengthAdjust="spacing" textLength="150" x="538.5" y="1146.3545">MAXCoin Mining Pool</text><rect fill="#E2E2F0" height="30.2969" rx="2.5" ry="2.5" style="stroke:#181818;stroke-width:0.5;" width="169" x="705.5" y="5"/><text fill="#000000" font-family="sans-serif" font-size="14" lengthAdjust="spacing" textLength="155" x="712.5" y="24.9951">DECA2 DistributedDB</text><rect fill="#E2E2F0" height="30.2969" rx="2.5" ry="2.5" style="stroke:#181818;stroke-width:0.5;" width="169" x="705.5" y="1126.3594"/><text fill="#000000" font-family="sans-serif" font-size="14" lengthAdjust="spacing" textLength="155" x="712.5" y="1146.3545">DECA2 DistributedDB</text><rect fill="#E2E2F0" height="30.2969" rx="2.5" ry="2.5" style="stroke:#181818;stroke-width:0.5;" width="105" x="887.5" y="5"/><text fill="#000000" font-family="sans-serif" font-size="14" lengthAdjust="spacing" textLength="91" x="894.5" y="24.9951">DECA2 DAPP</text><rect fill="#E2E2F0" height="30.2969" rx="2.5" ry="2.5" style="stroke:#181818;stroke-width:0.5;" width="105" x="887.5" y="1126.3594"/><text fill="#000000" font-family="sans-serif" font-size="14" lengthAdjust="spacing" textLength="91" x="894.5" y="1146.3545">DECA2 DAPP</text><rect fill="#E2E2F0" height="30.2969" rx="2.5" ry="2.5" style="stroke:#181818;stroke-width:0.5;" width="110" x="1117" y="5"/><text fill="#000000" font-family="sans-serif" font-size="14" lengthAdjust="spacing" textLength="96" x="1124" y="24.9951">Liquidity Pool</text><rect fill="#E2E2F0" height="30.2969" rx="2.5" ry="2.5" style="stroke:#181818;stroke-width:0.5;" width="110" x="1117" y="1126.3594"/><text fill="#000000" font-family="sans-serif" font-size="14" lengthAdjust="spacing" textLength="96" x="1124" y="1146.3545">Liquidity Pool</text><rect fill="#E2E2F0" height="30.2969" rx="2.5" ry="2.5" style="stroke:#181818;stroke-width:0.5;" width="166" x="1244" y="5"/><text fill="#000000" font-family="sans-serif" font-size="14" lengthAdjust="spacing" textLength="152" x="1251" y="24.9951">Node Storage Energy</text><rect fill="#E2E2F0" height="30.2969" rx="2.5" ry="2.5" style="stroke:#181818;stroke-width:0.5;" width="166" x="1244" y="1126.3594"/><text fill="#000000" font-family="sans-serif" font-size="14" lengthAdjust="spacing" textLength="152" x="1251" y="1146.3545">Node Storage Energy</text><rect fill="#FFFFFF" height="58.2656" style="stroke:#181818;stroke-width:1.0;" width="10" x="935" y="67.4297"/><rect fill="#FFFFFF" height="286.3281" style="stroke:#181818;stroke-width:1.0;" width="10" x="935" y="377.8906"/><polygon fill="#181818" points="923,63.4297,933,67.4297,923,71.4297,927,67.4297" style="stroke:#181818;stroke-width:1.0;"/><line style="stroke:#181818;stroke-width:1.0;" x1="105.5" x2="929" y1="67.4297" y2="67.4297"/><text fill="#000000" font-family="sans-serif" font-size="13" lengthAdjust="spacing" textLength="319" x="112.5" y="62.3638">Applies for getting a clean energy system (miner)</text><polygon fill="#181818" points="923,92.5625,933,96.5625,923,100.5625,927,96.5625" style="stroke:#181818;stroke-width:1.0;"/><line style="stroke:#181818;stroke-width:1.0;" x1="338.5" x2="929" y1="96.5625" y2="96.5625"/><text fill="#000000" font-family="sans-serif" font-size="13" lengthAdjust="spacing" textLength="222" x="345.5" y="91.4966">Verifies and Approves Applications</text><polygon fill="#181818" points="116.5,121.6953,106.5,125.6953,116.5,129.6953,112.5,125.6953" style="stroke:#181818;stroke-width:1.0;"/><line style="stroke:#181818;stroke-width:1.0;stroke-dasharray:2.0,2.0;" x1="110.5" x2="939" y1="125.6953" y2="125.6953"/><text fill="#000000" font-family="sans-serif" font-size="13" lengthAdjust="spacing" textLength="329" x="122.5" y="120.6294">Gets a SBT paired the clean energy system (miner)</text><path d="M10,140.6953 L88,140.6953 L88,147.8281 L78,157.8281 L10,157.8281 L10,140.6953 " fill="#EEEEEE" style="stroke:#000000;stroke-width:1.5;"/><rect fill="none" height="749.9297" style="stroke:#000000;stroke-width:1.5;" width="1420" x="10" y="140.6953"/><text fill="#000000" font-family="sans-serif" font-size="13" font-weight="bold" lengthAdjust="spacing" textLength="33" x="25" y="153.7622">loop</text><text fill="#000000" font-family="sans-serif" font-size="11" font-weight="bold" lengthAdjust="spacing" textLength="135" x="103" y="152.9058">[Operation Process]</text><polygon fill="#181818" points="601.5,174.9609,611.5,178.9609,601.5,182.9609,605.5,178.9609" style="stroke:#181818;stroke-width:1.0;"/><line style="stroke:#181818;stroke-width:1.0;" x1="105.5" x2="607.5" y1="178.9609" y2="178.9609"/><text fill="#000000" font-family="sans-serif" font-size="13" lengthAdjust="spacing" textLength="197" x="112.5" y="173.895">Starts PoW the mining Process</text><polygon fill="#181818" points="778,204.0938,788,208.0938,778,212.0938,782,208.0938" style="stroke:#181818;stroke-width:1.0;"/><line style="stroke:#181818;stroke-width:1.0;" x1="105.5" x2="784" y1="208.0938" y2="208.0938"/><text fill="#000000" font-family="sans-serif" font-size="13" lengthAdjust="spacing" textLength="189" x="112.5" y="203.0278">Stores Energy Measurements</text><path d="M20,223.0938 L86,223.0938 L86,230.2266 L76,240.2266 L20,240.2266 L20,223.0938 " fill="#EEEEEE" style="stroke:#000000;stroke-width:1.5;"/><rect fill="none" height="660.5313" style="stroke:#000000;stroke-width:1.5;" width="1400" x="20" y="223.0938"/><text fill="#000000" font-family="sans-serif" font-size="13" font-weight="bold" lengthAdjust="spacing" textLength="21" x="35" y="236.1606">alt</text><text fill="#000000" font-family="sans-serif" font-size="11" font-weight="bold" lengthAdjust="spacing" textLength="181" x="101" y="235.3042">[if "Sells Excess of Energy"]</text><polygon fill="#181818" points="1315,257.3594,1325,261.3594,1315,265.3594,1319,261.3594" style="stroke:#181818;stroke-width:1.0;"/><line style="stroke:#181818;stroke-width:1.0;" x1="105.5" x2="1321" y1="261.3594" y2="261.3594"/><text fill="#000000" font-family="sans-serif" font-size="13" lengthAdjust="spacing" textLength="205" x="112.5" y="256.2935">Start sending energy to the NSE</text><polygon fill="#181818" points="778,286.4922,788,290.4922,778,294.4922,782,290.4922" style="stroke:#181818;stroke-width:1.0;"/><line style="stroke:#181818;stroke-width:1.0;" x1="105.5" x2="784" y1="290.4922" y2="290.4922"/><text fill="#000000" font-family="sans-serif" font-size="13" lengthAdjust="spacing" textLength="201" x="112.5" y="285.4263">Updates Measured Sent Energy</text><polygon fill="#181818" points="801,315.625,791,319.625,801,323.625,797,319.625" style="stroke:#181818;stroke-width:1.0;"/><line style="stroke:#181818;stroke-width:1.0;" x1="795" x2="1326" y1="319.625" y2="319.625"/><text fill="#000000" font-family="sans-serif" font-size="13" lengthAdjust="spacing" textLength="213" x="807" y="314.5591">Stores Received Energy (-looses)</text><polygon fill="#181818" points="801,344.7578,791,348.7578,801,352.7578,797,348.7578" style="stroke:#181818;stroke-width:1.0;"/><line style="stroke:#181818;stroke-width:1.0;" x1="795" x2="1326" y1="348.7578" y2="348.7578"/><text fill="#000000" font-family="sans-serif" font-size="13" lengthAdjust="spacing" textLength="231" x="807" y="343.6919">Updates Measured Received Energy</text><polygon fill="#181818" points="923,373.8906,933,377.8906,923,381.8906,927,377.8906" style="stroke:#181818;stroke-width:1.0;"/><line style="stroke:#181818;stroke-width:1.0;" x1="105.5" x2="929" y1="377.8906" y2="377.8906"/><text fill="#000000" font-family="sans-serif" font-size="13" lengthAdjust="spacing" textLength="239" x="112.5" y="372.8247">Request Payment (Example Monthly)</text><polygon fill="#181818" points="801,403.0234,791,407.0234,801,411.0234,797,407.0234" style="stroke:#181818;stroke-width:1.0;"/><line style="stroke:#181818;stroke-width:1.0;" x1="795" x2="934" y1="407.0234" y2="407.0234"/><text fill="#000000" font-family="sans-serif" font-size="13" lengthAdjust="spacing" textLength="121" x="807" y="401.9575">Gets Measurments</text><polygon fill="#181818" points="923,432.1563,933,436.1563,923,440.1563,927,436.1563" style="stroke:#181818;stroke-width:1.0;"/><line style="stroke:#181818;stroke-width:1.0;" x1="338.5" x2="929" y1="436.1563" y2="436.1563"/><text fill="#000000" font-family="sans-serif" font-size="13" lengthAdjust="spacing" textLength="207" x="345.5" y="431.0903">Verifies Payment Request Order</text><polygon fill="#181818" points="778,461.2891,788,465.2891,778,469.2891,782,465.2891" style="stroke:#181818;stroke-width:1.0;"/><line style="stroke:#181818;stroke-width:1.0;" x1="338.5" x2="784" y1="465.2891" y2="465.2891"/><text fill="#000000" font-family="sans-serif" font-size="13" lengthAdjust="spacing" textLength="267" x="345.5" y="460.2231">Verifies data integrity related to the Miner</text><polygon fill="#181818" points="601.5,490.4219,611.5,494.4219,601.5,498.4219,605.5,494.4219" style="stroke:#181818;stroke-width:1.0;"/><line style="stroke:#181818;stroke-width:1.0;" x1="338.5" x2="607.5" y1="494.4219" y2="494.4219"/><text fill="#000000" font-family="sans-serif" font-size="13" lengthAdjust="spacing" textLength="251" x="345.5" y="489.356">Verifies Continues MaxCoin Mining data</text><polygon fill="#181818" points="116.5,519.5547,106.5,523.5547,116.5,527.5547,112.5,523.5547" style="stroke:#181818;stroke-width:1.0;"/><line style="stroke:#181818;stroke-width:1.0;" x1="110.5" x2="337.5" y1="523.5547" y2="523.5547"/><text fill="#000000" font-family="sans-serif" font-size="13" lengthAdjust="spacing" textLength="209" x="122.5" y="518.4888">Verifies Miner Hardware Integrity</text><polygon fill="#181818" points="923,548.6875,933,552.6875,923,556.6875,927,552.6875" style="stroke:#181818;stroke-width:1.0;"/><line style="stroke:#181818;stroke-width:1.0;" x1="338.5" x2="929" y1="552.6875" y2="552.6875"/><text fill="#000000" font-family="sans-serif" font-size="13" lengthAdjust="spacing" textLength="145" x="345.5" y="547.6216">DAO Votes If Complies</text><path d="M30,567.6875 L96,567.6875 L96,574.8203 L86,584.8203 L30,584.8203 L30,567.6875 " fill="#EEEEEE" style="stroke:#000000;stroke-width:1.5;"/><rect fill="none" height="177.6016" style="stroke:#000000;stroke-width:1.5;" width="1207" x="30" y="567.6875"/><text fill="#000000" font-family="sans-serif" font-size="13" font-weight="bold" lengthAdjust="spacing" textLength="21" x="45" y="580.7544">alt</text><text fill="#000000" font-family="sans-serif" font-size="11" font-weight="bold" lengthAdjust="spacing" textLength="146" x="111" y="579.8979">[if "it gets approved"]</text><polygon fill="#181818" points="1160,601.9531,1170,605.9531,1160,609.9531,1164,605.9531" style="stroke:#181818;stroke-width:1.0;"/><line style="stroke:#181818;stroke-width:1.0;" x1="945" x2="1166" y1="605.9531" y2="605.9531"/><text fill="#000000" font-family="sans-serif" font-size="13" lengthAdjust="spacing" textLength="203" x="952" y="600.8872">Mints DECA(EnergyToken to LP)</text><polygon fill="#181818" points="1160,631.0859,1170,635.0859,1160,639.0859,1164,635.0859" style="stroke:#181818;stroke-width:1.0;"/><line style="stroke:#181818;stroke-width:1.0;" x1="945" x2="1166" y1="635.0859" y2="635.0859"/><text fill="#000000" font-family="sans-serif" font-size="13" lengthAdjust="spacing" textLength="165" x="952" y="630.02">Mints MaxCoin (Pay to LP)</text><polygon fill="#181818" points="349.5,660.2188,339.5,664.2188,349.5,668.2188,345.5,664.2188" style="stroke:#181818;stroke-width:1.0;"/><line style="stroke:#181818;stroke-width:1.0;" x1="343.5" x2="939" y1="664.2188" y2="664.2188"/><text fill="#000000" font-family="sans-serif" font-size="13" lengthAdjust="spacing" textLength="241" x="355.5" y="659.1528">Mints DECA/Maxcoin Payment to DAO</text><line style="stroke:#000000;stroke-width:1.0;stroke-dasharray:2.0,2.0;" x1="30" x2="1237" y1="673.2188" y2="673.2188"/><text fill="#000000" font-family="sans-serif" font-size="11" font-weight="bold" lengthAdjust="spacing" textLength="110" x="35" y="683.4292">[if "it does not"]</text><polygon fill="#181818" points="778,704.1563,788,708.1563,778,712.1563,782,708.1563" style="stroke:#181818;stroke-width:1.0;"/><line style="stroke:#181818;stroke-width:1.0;stroke-dasharray:2.0,2.0;" x1="338.5" x2="784" y1="708.1563" y2="708.1563"/><text fill="#000000" font-family="sans-serif" font-size="13" lengthAdjust="spacing" textLength="91" x="345.5" y="703.0903">Update Status</text><polygon fill="#181818" points="116.5,733.2891,106.5,737.2891,116.5,741.2891,112.5,737.2891" style="stroke:#181818;stroke-width:1.0;"/><line style="stroke:#181818;stroke-width:1.0;stroke-dasharray:2.0,2.0;" x1="110.5" x2="337.5" y1="737.2891" y2="737.2891"/><text fill="#000000" font-family="sans-serif" font-size="13" lengthAdjust="spacing" textLength="110" x="122.5" y="732.2231">Request Updates</text><line style="stroke:#000000;stroke-width:1.0;stroke-dasharray:2.0,2.0;" x1="20" x2="1420" y1="753.2891" y2="753.2891"/><text fill="#000000" font-family="sans-serif" font-size="11" font-weight="bold" lengthAdjust="spacing" textLength="114" x="25" y="763.4995">[if "Buys Energy"]</text><polygon fill="#181818" points="116.5,784.2266,106.5,788.2266,116.5,792.2266,112.5,788.2266" style="stroke:#181818;stroke-width:1.0;"/><line style="stroke:#181818;stroke-width:1.0;stroke-dasharray:2.0,2.0;" x1="110.5" x2="1171" y1="788.2266" y2="788.2266"/><text fill="#000000" font-family="sans-serif" font-size="13" lengthAdjust="spacing" textLength="129" x="122.5" y="783.1606">Gets Energy Tokens</text><polygon fill="#181818" points="928,813.3594,938,817.3594,928,821.3594,932,817.3594" style="stroke:#181818;stroke-width:1.0;"/><line style="stroke:#181818;stroke-width:1.0;" x1="105.5" x2="934" y1="817.3594" y2="817.3594"/><text fill="#000000" font-family="sans-serif" font-size="13" lengthAdjust="spacing" textLength="154" x="112.5" y="812.2935">Sets Fill Energy Request</text><polygon fill="#181818" points="951,842.4922,941,846.4922,951,850.4922,947,846.4922" style="stroke:#181818;stroke-width:1.0;"/><line style="stroke:#181818;stroke-width:1.0;" x1="945" x2="1326" y1="846.4922" y2="846.4922"/><text fill="#000000" font-family="sans-serif" font-size="13" lengthAdjust="spacing" textLength="115" x="957" y="841.4263">Accepts Requests</text><polygon fill="#181818" points="116.5,871.625,106.5,875.625,116.5,879.625,112.5,875.625" style="stroke:#181818;stroke-width:1.0;"/><line style="stroke:#181818;stroke-width:1.0;stroke-dasharray:2.0,2.0;" x1="110.5" x2="1326" y1="875.625" y2="875.625"/><text fill="#000000" font-family="sans-serif" font-size="13" lengthAdjust="spacing" textLength="168" x="122.5" y="870.5591">Sends Energy to the Miner</text><line style="stroke:#181818;stroke-width:1.0;" x1="1172" x2="1214" y1="933.8906" y2="933.8906"/><line style="stroke:#181818;stroke-width:1.0;" x1="1214" x2="1214" y1="933.8906" y2="946.8906"/><line style="stroke:#181818;stroke-width:1.0;" x1="1173" x2="1214" y1="946.8906" y2="946.8906"/><polygon fill="#181818" points="1183,942.8906,1173,946.8906,1183,950.8906,1179,946.8906" style="stroke:#181818;stroke-width:1.0;"/><text fill="#000000" font-family="sans-serif" font-size="13" lengthAdjust="spacing" textLength="106" x="1179" y="913.6919">Generates % for</text><text fill="#000000" font-family="sans-serif" font-size="13" lengthAdjust="spacing" textLength="141" x="1179" y="928.8247">the Miner and the NSE</text><path d="M30,961.8906 L96,961.8906 L96,969.0234 L86,979.0234 L30,979.0234 L30,961.8906 " fill="#EEEEEE" style="stroke:#000000;stroke-width:1.5;"/><rect fill="none" height="148.4688" style="stroke:#000000;stroke-width:1.5;" width="1207" x="30" y="961.8906"/><text fill="#000000" font-family="sans-serif" font-size="13" font-weight="bold" lengthAdjust="spacing" textLength="21" x="45" y="974.9575">alt</text><text fill="#000000" font-family="sans-serif" font-size="11" font-weight="bold" lengthAdjust="spacing" textLength="216" x="111" y="974.1011">[if Miner Requests EnergyToken]</text><polygon fill="#181818" points="1160,996.1563,1170,1000.1563,1160,1004.1563,1164,1000.1563" style="stroke:#181818;stroke-width:1.0;"/><line style="stroke:#181818;stroke-width:1.0;" x1="105.5" x2="1166" y1="1000.1563" y2="1000.1563"/><text fill="#000000" font-family="sans-serif" font-size="13" lengthAdjust="spacing" textLength="141" x="112.5" y="995.0903">Request EnergyToken</text><polygon fill="#181818" points="116.5,1025.2891,106.5,1029.2891,116.5,1033.2891,112.5,1029.2891" style="stroke:#181818;stroke-width:1.0;"/><line style="stroke:#181818;stroke-width:1.0;" x1="110.5" x2="1171" y1="1029.2891" y2="1029.2891"/><text fill="#000000" font-family="sans-serif" font-size="13" lengthAdjust="spacing" textLength="118" x="122.5" y="1024.2231">Gets EnergyToken</text><line style="stroke:#000000;stroke-width:1.0;stroke-dasharray:2.0,2.0;" x1="30" x2="1237" y1="1038.2891" y2="1038.2891"/><text fill="#000000" font-family="sans-serif" font-size="11" font-weight="bold" lengthAdjust="spacing" textLength="185" x="35" y="1048.4995">[if Miner Requests Maxcoin]</text><polygon fill="#181818" points="1160,1069.2266,1170,1073.2266,1160,1077.2266,1164,1073.2266" style="stroke:#181818;stroke-width:1.0;"/><line style="stroke:#181818;stroke-width:1.0;" x1="105.5" x2="1166" y1="1073.2266" y2="1073.2266"/><text fill="#000000" font-family="sans-serif" font-size="13" lengthAdjust="spacing" textLength="109" x="112.5" y="1068.1606">Request Maxcoin</text><polygon fill="#181818" points="116.5,1098.3594,106.5,1102.3594,116.5,1106.3594,112.5,1102.3594" style="stroke:#181818;stroke-width:1.0;"/><line style="stroke:#181818;stroke-width:1.0;" x1="110.5" x2="1171" y1="1102.3594" y2="1102.3594"/><text fill="#000000" font-family="sans-serif" font-size="13" lengthAdjust="spacing" textLength="309" x="122.5" y="1097.2935">Gets Maxcoin equivalent to EnergyToken owned</text><!--SRC=[XLLDRnen4BtpAqQHgf83gjGZXqWaq3JIRdOLQDf3B-vw0Al6tjZU9FpxZhrhs2_IlG3QD_FUlFcWPCQ9GfHCERXAAqa_zameI8L2SmNCGffEoZPeWyLUYO99M2woWA3FBYHT_BhJTHAXTf1hBPjKUHUuNDqjli9IM6V4dyeXNzxM6RFbA72HvmrZtikKY9TASE6EPxQa1tdK767jj64xX1MLjpi6tEDwDKdJsOrFEeT5MKg15hRQm0wTymKmA2Go1HY2m1wjmmDC3zwZwmahd7Xb3cjLP4PCzOn6R7qkfhZFQ_Gh_GW41ND2AplnmDdi9atdS8-EaB2-tK39X44EReyV4dFiKWCzKkiIiX9D883Sw0Aj3Q_yu-kaBip91xB6aba_0ysXwTG8d7en3xQHzjerI97Pok015QKuWPbq8BPmjKOf2VhkCu7UHgjFk9YOV6zqW4N5FNzJfzD1b6zCFoYe-L5oAjf67HpMf2IAwuHGYcu5JrYWUAMG1ZsTaMCMxVM5i05LFy5GOUZz4xvKQ1taxEXjWkdgdHrAYP1gvVRosEKRzZ4-OK1gAM50QXt1-HvkE7QHEsh934Sp4kMJduAeN0P2ETmPlqq69UdYiINXB0nJX94wfRYZ4eMgl6lilNq8VEwnu5Pi883lpF0tPX0Uef1BnT9NUDQ-GmzR8Zw4vUrwsuobS7wVQSNgHUJTWJnxdL1MKa58VtIcTPit-YygRqAIN_ytBbOzfGPy74FgssHVABBmaR5p5EoFQpzuRF7ZWz9Yh9ThyaLfDrPgDkjCk5z4LzaBGD-YE4NDHdH95PyC1DnMHpkw_9zdbvvDjiow6vLqpcEpSw4RziBchJtmcv0oeXlX8mjU7_oYmDBP2BC3NCrF9uQV18nkGpGXVYRDKDpxgnQEo2V_h_9RdKB37qFxqZMpMh-CWg0rWftBdBJkp1Z62-XPTmR4DlMucWcyoDD_t-68uqjOcaxPJ71xW_IRmfDB_m00]--></g></svg>