<?xml version="1.0" encoding="windows-1252" standalone="no"?>
<svg xmlns="http://www.w3.org/2000/svg" xmlns:xlink="http://www.w3.org/1999/xlink" contentStyleType="text/css" height="2247px" preserveAspectRatio="none" style="width:1641px;height:2247px;background:#FFFFFF;" version="1.1" viewBox="0 0 1641 2247" width="1641px" zoomAndPan="magnify"><script xmlns=""/><defs/><g><text fill="#000000" font-family="sans-serif" font-size="14" font-weight="bold" lengthAdjust="spacing" textLength="378" x="624.5635" y="22.9951">MAXCOIN GREEN ENERGY PROPOSAL USE CASES</text><!--cluster DAPP--><g id="cluster_DAPP"><rect fill="none" height="769" rx="2.5" ry="2.5" style="stroke:#181818;stroke-width:1.0;" width="1169" x="156.627" y="564.2969"/><text fill="#000000" font-family="sans-serif" font-size="14" font-weight="bold" lengthAdjust="spacing" textLength="98" x="692.127" y="579.292">DECA2 DAPP</text></g><!--cluster DAO_Vaults--><g id="cluster_DAO_Vaults"><rect fill="none" height="85" rx="2.5" ry="2.5" style="stroke:#181818;stroke-width:1.0;" width="177" x="1124.627" y="607.2969"/><text fill="#000000" font-family="sans-serif" font-size="14" font-weight="bold" lengthAdjust="spacing" textLength="94" x="1166.127" y="622.292">DAO_Vaults</text></g><!--cluster DOD--><g id="cluster_DOD"><rect fill="none" height="754" rx="2.5" ry="2.5" style="stroke:#181818;stroke-width:1.0;" width="781.5" x="127.127" y="1445.2969"/><text fill="#000000" font-family="sans-serif" font-size="14" font-weight="bold" lengthAdjust="spacing" textLength="170" x="432.877" y="1460.292">DECA2 DistributedDB</text></g><!--cluster NSE--><g id="cluster_NSE"><rect fill="none" height="405" rx="2.5" ry="2.5" style="stroke:#181818;stroke-width:1.0;" width="310" x="162.127" y="44.2969"/><text fill="#000000" font-family="sans-serif" font-size="14" font-weight="bold" lengthAdjust="spacing" textLength="168" x="233.127" y="59.292">Node Storage Energy</text></g><!--cluster MMP--><g id="cluster_MMP"><rect fill="none" height="270" rx="2.5" ry="2.5" style="stroke:#181818;stroke-width:1.0;" width="312" x="608.627" y="223.2969"/><text fill="#000000" font-family="sans-serif" font-size="14" font-weight="bold" lengthAdjust="spacing" textLength="216" x="656.627" y="238.292">MaxCoin Clean Mining Pool</text></g><!--cluster LP--><g id="cluster_LP"><rect fill="none" height="381" rx="2.5" ry="2.5" style="stroke:#181818;stroke-width:1.0;" width="362" x="1032.127" y="151.2969"/><text fill="#000000" font-family="sans-serif" font-size="14" font-weight="bold" lengthAdjust="spacing" textLength="111" x="1157.627" y="166.292">Liquidity Pool</text></g><g id="elem_DAPP1"><ellipse cx="764.5738" cy="627.3862" fill="#F1F1F1" rx="125.9468" ry="27.5894" style="stroke:#181818;stroke-width:0.5;"/><text fill="#000000" font-family="sans-serif" font-size="14" lengthAdjust="spacing" textLength="220" x="654.5738" y="630.2329">Gets MultiChain Miner Request</text></g><g id="elem_DAPP2"><ellipse cx="317.1197" cy="879.0954" fill="#F1F1F1" rx="144.4927" ry="31.2985" style="stroke:#181818;stroke-width:0.5;"/><text fill="#000000" font-family="sans-serif" font-size="14" lengthAdjust="spacing" textLength="255" x="187.6197" y="881.9421">Approves MultiChain Miner Request</text></g><g id="elem_DAPP3"><ellipse cx="764.6623" cy="1038.4039" fill="#F1F1F1" rx="143.5353" ry="31.1071" style="stroke:#181818;stroke-width:0.5;"/><text fill="#000000" font-family="sans-serif" font-size="14" lengthAdjust="spacing" textLength="257" x="636.1623" y="1041.2506">Set MultiChain Miner SBT attributes</text></g><g id="elem_DAPP4"><ellipse cx="316.9202" cy="1127.2555" fill="#F1F1F1" rx="85.2932" ry="19.4586" style="stroke:#181818;stroke-width:0.5;"/><text fill="#000000" font-family="sans-serif" font-size="14" lengthAdjust="spacing" textLength="131" x="251.4202" y="1130.1022">Gets mint request</text></g><g id="elem_DAPP5"><ellipse cx="317.2205" cy="624.1156" fill="#F1F1F1" rx="109.5935" ry="24.3187" style="stroke:#181818;stroke-width:0.5;"/><text fill="#000000" font-family="sans-serif" font-size="14" lengthAdjust="spacing" textLength="185" x="224.7205" y="626.9623">Approved Minting (Baliot)</text></g><g id="elem_DAPP6"><ellipse cx="317.368" cy="786.4451" fill="#F1F1F1" rx="121.241" ry="26.6482" style="stroke:#181818;stroke-width:0.5;"/><text fill="#000000" font-family="sans-serif" font-size="14" lengthAdjust="spacing" textLength="210" x="212.368" y="789.2917">Gets Payment Request Order</text></g><g id="elem_DAPP7"><ellipse cx="317.3548" cy="1044.1424" fill="#F1F1F1" rx="129.7278" ry="28.3456" style="stroke:#181818;stroke-width:0.5;"/><text fill="#000000" font-family="sans-serif" font-size="14" lengthAdjust="spacing" textLength="228" x="203.3548" y="1046.9891">Gets Energy Measurement Data</text></g><g id="elem_DAPP8"><ellipse cx="317.276" cy="1210.4267" fill="#F1F1F1" rx="131.149" ry="28.6298" style="stroke:#181818;stroke-width:0.5;"/><text fill="#000000" font-family="sans-serif" font-size="14" lengthAdjust="spacing" textLength="231" x="201.776" y="1213.2734">Verifies Payment Request Order</text></g><g id="elem_DAPP9"><ellipse cx="1212.9467" cy="1231.064" fill="#F1F1F1" rx="59.3197" ry="14.7671" style="stroke:#181818;stroke-width:0.5;"/><text fill="#000000" font-family="sans-serif" font-size="14" lengthAdjust="spacing" textLength="66" x="1176.9467" y="1234.8116">Gets SBT</text></g><g id="elem_DAPP10"><ellipse cx="764.5092" cy="1127.3733" fill="#F1F1F1" rx="100.8822" ry="22.5764" style="stroke:#181818;stroke-width:0.5;"/><text fill="#000000" font-family="sans-serif" font-size="14" lengthAdjust="spacing" textLength="166" x="681.5092" y="1130.22">Verify all data and vote</text></g><g id="elem_DAPP11"><ellipse cx="317.1948" cy="963.3104" fill="#F1F1F1" rx="73.0678" ry="17.0136" style="stroke:#181818;stroke-width:0.5;"/><text fill="#000000" font-family="sans-serif" font-size="14" lengthAdjust="spacing" textLength="101" x="263.6948" y="967.058">Not Approved</text></g><g id="elem_DAPP12"><ellipse cx="317.0874" cy="1295.289" fill="#F1F1F1" rx="95.4604" ry="21.4921" style="stroke:#181818;stroke-width:0.5;"/><text fill="#000000" font-family="sans-serif" font-size="14" lengthAdjust="spacing" textLength="154" x="240.0874" y="1298.1356">Votes module update</text></g><g id="elem_DAPP13"><ellipse cx="764.5896" cy="781.4894" fill="#F1F1F1" rx="66.4626" ry="15.6925" style="stroke:#181818;stroke-width:0.5;"/><text fill="#000000" font-family="sans-serif" font-size="14" lengthAdjust="spacing" textLength="83" x="720.0896" y="785.237">Mints DECA</text></g><g id="elem_DAPP14"><ellipse cx="764.7414" cy="710.2198" fill="#F1F1F1" rx="90.1144" ry="20.4229" style="stroke:#181818;stroke-width:0.5;"/><text fill="#000000" font-family="sans-serif" font-size="14" lengthAdjust="spacing" textLength="142" x="693.7414" y="713.0664">Mints Energy Token</text></g><g id="elem_DAPP15"><ellipse cx="317.1266" cy="704.3968" fill="#F1F1F1" rx="90.9996" ry="20.5999" style="stroke:#181818;stroke-width:0.5;"/><text fill="#000000" font-family="sans-serif" font-size="14" lengthAdjust="spacing" textLength="144" x="245.1266" y="707.2435">Fills Energy Request</text></g><g id="elem_DV1"><ellipse cx="1212.9343" cy="659.1583" fill="#F1F1F1" rx="72.3073" ry="16.8615" style="stroke:#181818;stroke-width:0.5;"/><text fill="#000000" font-family="sans-serif" font-size="14" lengthAdjust="spacing" textLength="99" x="1160.4343" y="662.9059">Stores DECA2</text></g><g id="elem_ODB1"><ellipse cx="317.368" cy="1604.4451" fill="#F1F1F1" rx="121.241" ry="26.6482" style="stroke:#181818;stroke-width:0.5;"/><text fill="#000000" font-family="sans-serif" font-size="14" lengthAdjust="spacing" textLength="210" x="212.368" y="1607.2917">Stores Energy Measurements</text></g><g id="elem_ODB2"><ellipse cx="316.9901" cy="1694.1695" fill="#F1F1F1" rx="127.3631" ry="27.8726" style="stroke:#181818;stroke-width:0.5;"/><text fill="#000000" font-family="sans-serif" font-size="14" lengthAdjust="spacing" textLength="223" x="205.4901" y="1697.0162">Updates Measured Sent Energy</text></g><g id="elem_ODB3"><ellipse cx="316.8987" cy="2156.3512" fill="#F1F1F1" rx="120.7717" ry="26.5543" style="stroke:#181818;stroke-width:0.5;"/><text fill="#000000" font-family="sans-serif" font-size="14" lengthAdjust="spacing" textLength="209" x="212.3987" y="2159.1979">Stores Received Energy Data</text></g><g id="elem_ODB4"><ellipse cx="317.2056" cy="1511.2126" fill="#F1F1F1" rx="142.5786" ry="30.9157" style="stroke:#181818;stroke-width:0.5;"/><text fill="#000000" font-family="sans-serif" font-size="14" lengthAdjust="spacing" textLength="255" x="189.7056" y="1514.0593">Updates Measured Received Energy</text></g><g id="elem_ODB5"><ellipse cx="317.0537" cy="1794.4822" fill="#F1F1F1" rx="173.9267" ry="37.1853" style="stroke:#181818;stroke-width:0.5;"/><text fill="#000000" font-family="sans-serif" font-size="14" lengthAdjust="spacing" textLength="320" x="157.0537" y="1797.3289">Verifies Data Integrity Reltated to the Miner</text></g><g id="elem_ODB6"><ellipse cx="317.1409" cy="1897.4997" fill="#F1F1F1" rx="144.0139" ry="31.2028" style="stroke:#181818;stroke-width:0.5;"/><text fill="#000000" font-family="sans-serif" font-size="14" lengthAdjust="spacing" textLength="258" x="188.1409" y="1900.3463">Provides Access to the DECA2 DAPP</text></g><g id="elem_ODB7"><ellipse cx="764.623" cy="1523.2469" fill="#F1F1F1" rx="127.996" ry="42.95" style="stroke:#181818;stroke-width:0.5;"/><text fill="#000000" font-family="sans-serif" font-size="14" lengthAdjust="spacing" textLength="166" x="681.653" y="1506.1811">Stores SBT Miner Data:</text><line style="stroke:#181818;stroke-width:1.0;" x1="644.3775" x2="884.8685" y1="1509.4829" y2="1509.4829"/><text fill="#000000" font-family="sans-serif" font-size="14" lengthAdjust="spacing" textLength="120" x="704.653" y="1526.478">Mining Pool Data</text><text fill="#000000" font-family="sans-serif" font-size="14" lengthAdjust="spacing" textLength="161" x="684.153" y="1542.7749">Miner Hardware Status</text></g><g id="elem_ODB8"><ellipse cx="317.2971" cy="2070.4309" fill="#F1F1F1" rx="108.6701" ry="24.134" style="stroke:#181818;stroke-width:0.5;"/><text fill="#000000" font-family="sans-serif" font-size="14" lengthAdjust="spacing" textLength="183" x="225.7971" y="2073.2776">Updates Mining Pool Data</text></g><g id="elem_ODB9"><ellipse cx="317.3752" cy="1987.2465" fill="#F1F1F1" rx="107.7482" ry="23.9496" style="stroke:#181818;stroke-width:0.5;"/><text fill="#000000" font-family="sans-serif" font-size="14" lengthAdjust="spacing" textLength="181" x="226.8752" y="1990.0932">Updates Miner HW Status</text></g><g id="elem_NSE1"><ellipse cx="317.1239" cy="309.4962" fill="#F1F1F1" rx="133.9969" ry="29.1994" style="stroke:#181818;stroke-width:0.5;"/><text fill="#000000" font-family="sans-serif" font-size="14" lengthAdjust="spacing" textLength="237" x="198.6239" y="312.3429">Accepts Energy Storage Request</text></g><g id="elem_NSE2"><ellipse cx="317.3618" cy="403.5438" fill="#F1F1F1" rx="139.2348" ry="30.247" style="stroke:#181818;stroke-width:0.5;"/><text fill="#000000" font-family="sans-serif" font-size="14" lengthAdjust="spacing" textLength="248" x="193.3618" y="406.3905">Update Measured Received Energy</text></g><g id="elem_NSE3"><ellipse cx="316.9312" cy="215.2577" fill="#F1F1F1" rx="137.8042" ry="29.9608" style="stroke:#181818;stroke-width:0.5;"/><text fill="#000000" font-family="sans-serif" font-size="14" lengthAdjust="spacing" textLength="245" x="194.4312" y="218.1044">Accepts Energy Take Out Request</text></g><g id="elem_NSE4"><ellipse cx="317.2475" cy="106.321" fill="#F1F1F1" rx="123.1205" ry="27.0241" style="stroke:#181818;stroke-width:0.5;"/><text fill="#000000" font-family="sans-serif" font-size="14" lengthAdjust="spacing" textLength="214" x="210.2475" y="109.1676">Transfers Energy to the Miner</text></g><g id="elem_MMP1"><ellipse cx="764.8164" cy="289.2348" fill="#F1F1F1" rx="140.1894" ry="30.4379" style="stroke:#181818;stroke-width:0.5;"/><text fill="#000000" font-family="sans-serif" font-size="14" lengthAdjust="spacing" textLength="250" x="639.8164" y="292.0814">Stores Online Miner Time + Hashes</text></g><g id="elem_MMP2"><ellipse cx="764.5603" cy="460.2835" fill="#F1F1F1" rx="70.4333" ry="16.4867" style="stroke:#181818;stroke-width:0.5;"/><text fill="#000000" font-family="sans-serif" font-size="14" lengthAdjust="spacing" textLength="94" x="714.5603" y="464.0311">Uploads Data</text></g><g id="elem_MMP3"><ellipse cx="764.5005" cy="390.0716" fill="#F1F1F1" rx="79.3735" ry="18.2747" style="stroke:#181818;stroke-width:0.5;"/><text fill="#000000" font-family="sans-serif" font-size="14" lengthAdjust="spacing" textLength="117" x="704.0946" y="393.5217">Logs in with SBT</text></g><g id="elem_LP1"><ellipse cx="1212.9641" cy="217.4643" fill="#F1F1F1" rx="101.3371" ry="22.6674" style="stroke:#181818;stroke-width:0.5;"/><text fill="#000000" font-family="sans-serif" font-size="14" lengthAdjust="spacing" textLength="167" x="1129.4641" y="220.311">Gets % per transaction</text></g><g id="elem_LP2"><ellipse cx="1213.1948" cy="292.3104" fill="#F1F1F1" rx="73.0678" ry="17.0136" style="stroke:#181818;stroke-width:0.5;"/><text fill="#000000" font-family="sans-serif" font-size="14" lengthAdjust="spacing" textLength="101" x="1159.6948" y="296.058">Swaps Tokens</text></g><g id="elem_LP3"><ellipse cx="1213.1146" cy="455.0944" fill="#F1F1F1" rx="156.9876" ry="33.7975" style="stroke:#181818;stroke-width:0.5;"/><text fill="#000000" font-family="sans-serif" font-size="14" lengthAdjust="spacing" textLength="285" x="1070.6146" y="457.9411">Provides liquidity DECA2/Energy Tokens</text></g><g id="elem_LP4"><ellipse cx="1213.1266" cy="365.3968" fill="#F1F1F1" rx="90.9996" ry="20.5999" style="stroke:#181818;stroke-width:0.5;"/><text fill="#000000" font-family="sans-serif" font-size="14" lengthAdjust="spacing" textLength="144" x="1141.1266" y="368.2435">Gets Energy Tokens</text></g><!--entity MM--><g id="elem_MM"><ellipse cx="317.127" cy="486.2969" fill="#F1F1F1" rx="16" ry="16" style="stroke:#181818;stroke-width:1.5;"/><path d="M317.127,506.2969 C321.127,506.2969 324.127,506.2969 328.127,502.2969 C336.127,502.2969 344.127,510.2969 344.127,518.2969 L344.127,522.2969 C344.127,526.2969 340.127,530.2969 336.127,530.2969 L298.127,530.2969 C294.127,530.2969 290.127,526.2969 290.127,522.2969 L290.127,518.2969 C290.127,510.2969 298.127,502.2969 306.127,502.2969 C310.127,506.2969 313.127,506.2969 317.127,506.2969 " fill="#F1F1F1" style="stroke:#181818;stroke-width:1.5;"/><text fill="#000000" font-family="sans-serif" font-size="14" lengthAdjust="spacing" textLength="119" x="257.627" y="544.792">MultiChain Miner</text></g><!--entity TDAO--><g id="elem_TDAO"><ellipse cx="764.627" cy="1367.2969" fill="#F1F1F1" rx="16" ry="16" style="stroke:#181818;stroke-width:1.5;"/><path d="M764.627,1387.2969 C768.627,1387.2969 771.627,1387.2969 775.627,1383.2969 C783.627,1383.2969 791.627,1391.2969 791.627,1399.2969 L791.627,1403.2969 C791.627,1407.2969 787.627,1411.2969 783.627,1411.2969 L745.627,1411.2969 C741.627,1411.2969 737.627,1407.2969 737.627,1403.2969 L737.627,1399.2969 C737.627,1391.2969 745.627,1383.2969 753.627,1383.2969 C757.627,1387.2969 760.627,1387.2969 764.627,1387.2969 " fill="#F1F1F1" style="stroke:#181818;stroke-width:1.5;"/><text fill="#000000" font-family="sans-serif" font-size="14" lengthAdjust="spacing" textLength="104" x="712.627" y="1425.792">Technical DAO</text></g><g id="elem_GMN52"><path d="M677.627,2215.7969 L677.627,2240.9297 A0,0 0 0 0 677.627,2240.9297 L851.627,2240.9297 A0,0 0 0 0 851.627,2240.9297 L851.627,2225.7969 L841.627,2215.7969 L690.126,2215.7969 L415.068,2171.9642 L682.126,2215.7969 L677.627,2215.7969 A0,0 0 0 0 677.627,2215.7969 " fill="#FEFFDD" style="stroke:#181818;stroke-width:0.5;"/><path d="M841.627,2215.7969 L841.627,2225.7969 L851.627,2225.7969 L841.627,2215.7969 " fill="#FEFFDD" style="stroke:#181818;stroke-width:0.5;"/><text fill="#000000" font-family="sans-serif" font-size="13" lengthAdjust="spacing" textLength="153" x="683.627" y="2232.8638">Verify Transmision Loss</text></g><g id="elem_GMN99"><path d="M1449.127,504.2969 L1449.127,544.5625 L1634.127,544.5625 L1634.127,514.2969 L1624.127,504.2969 L1449.127,504.2969 " fill="#FEFFDD" style="stroke:#181818;stroke-width:0.5;"/><path d="M1624.127,504.2969 L1624.127,514.2969 L1634.127,514.2969 L1624.127,504.2969 " fill="#FEFFDD" style="stroke:#181818;stroke-width:1.0;"/><text fill="#000000" font-family="sans-serif" font-size="13" lengthAdjust="spacing" textLength="119" x="1455.127" y="521.3638">Paired with DECA2</text><text fill="#000000" font-family="sans-serif" font-size="13" lengthAdjust="spacing" textLength="164" x="1455.127" y="536.4966">Paired with Carbon Token</text></g><!--link MM to DAPP1--><g id="link_MM_DAPP1"><path d="M376.826,523.9769 C455.624,545.0269 595.881,582.4869 684.099,606.0569 " fill="none" id="MM-DAPP1" style="stroke:#181818;stroke-width:1.0;"/></g><!--link DAPP2 to TDAO--><g id="link_DAPP2_TDAO"><path d="M441.03,895.6869 C460.047,903.2169 477.773,913.9769 491.127,929.2969 C551.927,999.0369 481.617,1051.6369 521.127,1135.2969 C540.878,1177.1169 572.773,1169.8469 591.127,1212.2969 C601.831,1237.0569 584.109,1311.9749 600.627,1333.2969 C627.015,1367.3599 675.29,1380.8199 712.481,1386.0789 " fill="none" id="DAPP2-TDAO" style="stroke:#181818;stroke-width:1.0;"/></g><!--link MM to DAPP3--><g id="link_MM_DAPP3"><path d="M376.821,531.6869 C453.247,562.7369 578.621,615.8769 591.127,635.2969 C612.695,668.7869 587.304,776.7569 600.627,814.2969 C628.537,892.9369 693.486,967.8669 732.448,1007.9969 " fill="none" id="MM-DAPP3" style="stroke:#181818;stroke-width:1.0;"/></g><!--link MM to DAPP4--><g id="link_MM_DAPP4"><path d="M257.62,512.2469 C202.665,519.6869 126.297,540.8669 104.127,600.7969 C85.932,649.9869 85.932,1023.6069 104.127,1072.7969 C122.8,1123.2769 185.519,1134.6769 238.1,1134.7469 " fill="none" id="MM-DAPP4" style="stroke:#181818;stroke-width:1.0;"/></g><!--link MM to DAPP15--><g id="link_MM_DAPP15"><path d="M257.507,522.4469 C216.118,534.2069 161.094,553.8369 119.127,583.2969 C94.685,600.4569 93.766,620.7869 104.127,648.7969 C122.026,697.1769 180.28,709.9669 231.35,711.2469 " fill="none" id="MM-DAPP15" style="stroke:#181818;stroke-width:1.0;"/></g><!--link DAPP2 to DAPP1--><g id="link_DAPP2_DAPP1"><path d="M440.566,862.6869 C459.515,855.3569 477.338,844.9669 491.127,830.2969 C534.113,784.5569 477.819,737.7269 521.127,692.2969 C551.328,660.6169 595.148,643.7869 637.256,635.0369 " fill="none" id="DAPP2-to-DAPP1" style="stroke:#181818;stroke-width:1.0;stroke-dasharray:7.0,7.0;"/><polygon fill="#181818" points="642.382,634.0069,632.7711,631.855,637.4796,634.9902,634.3444,639.6987,642.382,634.0069" style="stroke:#181818;stroke-width:1.0;"/><text fill="#000000" font-family="sans-serif" font-size="13" lengthAdjust="spacing" textLength="61" x="525.627" y="644.3638">첿xtend</text></g><!--link DAPP2 to DAPP3--><g id="link_DAPP2_DAPP3"><path d="M445.866,893.7069 C492.622,901.5369 545.275,913.4269 591.127,931.2969 C638.263,949.6769 686.778,981.0869 720.303,1005.1369 " fill="none" id="DAPP2-to-DAPP3" style="stroke:#181818;stroke-width:1.0;stroke-dasharray:7.0,7.0;"/><polygon fill="#181818" points="724.727,1008.3269,719.7687,999.8172,720.6722,1005.4014,715.0879,1006.3049,724.727,1008.3269" style="stroke:#181818;stroke-width:1.0;"/><text fill="#000000" font-family="sans-serif" font-size="13" lengthAdjust="spacing" textLength="61" x="525.627" y="906.3638">쳃nclude</text></g><!--link DAPP3 to DAPP9--><g id="link_DAPP3_DAPP9"><path d="M855.866,1062.3069 C879.807,1069.5169 905.447,1078.0169 928.627,1087.2969 C1025.627,1126.1569 1134.177,1186.2769 1184.167,1214.9769 " fill="none" id="DAPP3-to-DAPP9" style="stroke:#181818;stroke-width:1.0;stroke-dasharray:7.0,7.0;"/><polygon fill="#181818" points="1188.527,1217.4869,1182.7143,1209.5363,1184.1911,1214.9969,1178.7304,1216.4737,1188.527,1217.4869" style="stroke:#181818;stroke-width:1.0;"/><text fill="#000000" font-family="sans-serif" font-size="13" lengthAdjust="spacing" textLength="61" x="942.627" y="1089.3638">쳃nclude</text></g><!--link DAPP4 to TDAO--><g id="link_DAPP4_TDAO"><path d="M402.682,1128.7669 C433.575,1133.2669 466.858,1143.2969 491.127,1164.2969 C520.155,1189.4169 497.957,1214.6869 521.127,1245.2969 C544.359,1275.9889 569.512,1264.4459 591.127,1296.2969 C600.661,1310.3449 589.109,1320.8239 600.627,1333.2969 C629.452,1364.5129 676.451,1378.3289 712.593,1384.4429 " fill="none" id="DAPP4-TDAO" style="stroke:#181818;stroke-width:1.0;"/></g><!--link DAPP4 to DAPP10--><g id="link_DAPP4_DAPP10"><path d="M402.708,1127.2969 C475.307,1127.2969 580.268,1127.2969 658.304,1127.2969 " fill="none" id="DAPP4-to-DAPP10" style="stroke:#181818;stroke-width:1.0;stroke-dasharray:7.0,7.0;"/><polygon fill="#181818" points="663.404,1127.2969,654.404,1123.2969,658.404,1127.2969,654.404,1131.2969,663.404,1127.2969" style="stroke:#181818;stroke-width:1.0;"/><text fill="#000000" font-family="sans-serif" font-size="13" lengthAdjust="spacing" textLength="61" x="525.627" y="1123.3638">쳃nclude</text></g><!--link DAPP5 to DAPP10--><g id="link_DAPP5_DAPP10"><path d="M424.795,629.3269 C449.845,635.6369 474.152,646.8569 491.127,666.2969 C533.743,715.0969 485.471,902.2069 521.127,956.2969 C540.727,986.0369 571.53,965.5569 591.127,995.2969 C602.437,1012.4569 587.128,1071.7969 600.627,1087.2969 C615.928,1104.8669 637.57,1115.3569 660.101,1121.4869 " fill="none" id="DAPP5-to-DAPP10" style="stroke:#181818;stroke-width:1.0;stroke-dasharray:7.0,7.0;"/><polygon fill="#181818" points="665.226,1122.8069,657.5045,1116.6931,660.3833,1121.5626,655.5137,1124.4414,665.226,1122.8069" style="stroke:#181818;stroke-width:1.0;"/><text fill="#000000" font-family="sans-serif" font-size="13" lengthAdjust="spacing" textLength="61" x="525.627" y="952.3638">첿xtend</text></g><!--link DAPP11 to DAPP10--><g id="link_DAPP11_DAPP10"><path d="M385.82,969.3269 C418.784,974.1469 458.29,982.7969 491.127,998.2969 C547.84,1025.0669 544.475,1059.3669 600.627,1087.2969 C623.985,1098.9169 650.942,1107.2969 676.123,1113.2869 " fill="none" id="DAPP11-to-DAPP10" style="stroke:#181818;stroke-width:1.0;stroke-dasharray:7.0,7.0;"/><polygon fill="#181818" points="681.134,1114.4569,673.2739,1108.5223,676.264,1113.3243,671.4619,1116.3143,681.134,1114.4569" style="stroke:#181818;stroke-width:1.0;"/><text fill="#000000" font-family="sans-serif" font-size="13" lengthAdjust="spacing" textLength="61" x="525.627" y="1014.3638">첿xtend</text></g><!--link DAPP5 to DAPP13--><g id="link_DAPP5_DAPP13"><path d="M421.672,631.8169 C446.901,638.0769 472.076,648.6569 491.127,666.2969 C522.687,695.5169 487.552,731.4169 521.127,758.2969 C573.578,800.2869 654.325,799.0169 708.046,792.0069 " fill="none" id="DAPP5-to-DAPP13" style="stroke:#181818;stroke-width:1.0;stroke-dasharray:7.0,7.0;"/><polygon fill="#181818" points="713.158,791.3169,703.6999,788.5701,708.2039,791.9927,704.7812,796.4966,713.158,791.3169" style="stroke:#181818;stroke-width:1.0;"/><text fill="#000000" font-family="sans-serif" font-size="13" lengthAdjust="spacing" textLength="68" x="522.127" y="754.3638">쳃ncludes</text></g><!--link DAPP5 to DAPP14--><g id="link_DAPP5_DAPP14"><path d="M416.613,634.7069 C442.571,640.9169 469.375,650.7569 491.127,666.2969 C511.29,680.7069 499.395,701.3869 521.127,713.2969 C576.479,743.6369 650.163,737.4069 701.727,727.0469 " fill="none" id="DAPP5-to-DAPP14" style="stroke:#181818;stroke-width:1.0;stroke-dasharray:7.0,7.0;"/><polygon fill="#181818" points="706.646,726.0269,697.0238,723.9261,701.7489,727.0363,698.6388,731.7614,706.646,726.0269" style="stroke:#181818;stroke-width:1.0;"/><text fill="#000000" font-family="sans-serif" font-size="13" lengthAdjust="spacing" textLength="68" x="522.127" y="709.3638">쳃ncludes</text></g><!--link DAPP13 to DV1--><g id="link_DAPP13_DV1"><path d="M818.433,772.0569 C850.495,766.0869 892.137,757.6969 928.627,748.2969 C964.497,739.0569 983.567,751.0169 1008.127,723.2969 C1021.017,708.7469 1001.857,693.4969 1016.127,680.2969 C1051.487,647.5669 1107.227,644.4869 1150.237,648.3369 " fill="none" id="DAPP13-to-DV1" style="stroke:#181818;stroke-width:1.0;stroke-dasharray:7.0,7.0;"/><polygon fill="#181818" points="1155.417,648.8469,1146.8473,643.9931,1150.4406,648.3621,1146.0716,651.9554,1155.417,648.8469" style="stroke:#181818;stroke-width:1.0;"/><text fill="#000000" font-family="sans-serif" font-size="13" lengthAdjust="spacing" textLength="68" x="939.127" y="719.3638">쳃ncludes</text></g><!--link MM to DAPP6--><g id="link_MM_DAPP6"><path d="M257.507,522.4469 C216.118,534.2069 161.094,553.8369 119.127,583.2969 C110.743,589.1869 107.681,591.1869 104.127,600.7969 C85.006,652.4869 85.006,673.1069 104.127,724.7969 C118.048,762.4269 155.954,779.6069 196.001,786.7569 " fill="none" id="MM-DAPP6" style="stroke:#181818;stroke-width:1.0;"/></g><!--link DAPP8 to TDAO--><g id="link_DAPP8_TDAO"><path d="M425.848,1226.2969 C448.772,1233.0469 471.851,1242.6479 491.127,1256.2969 C510.443,1269.9749 502.766,1285.3609 521.127,1300.2969 C577.485,1346.1439 659.625,1369.6059 712.347,1380.6549 " fill="none" id="DAPP8-TDAO" style="stroke:#181818;stroke-width:1.0;"/></g><!--link MM to ODB1--><g id="link_MM_ODB1"><path d="M257.62,512.2469 C202.665,519.6869 126.297,540.8669 104.127,600.7969 C85.97,649.8769 85.97,1493.7139 104.127,1542.7969 C118.048,1580.4299 155.954,1597.6119 196.001,1604.7579 " fill="none" id="MM-ODB1" style="stroke:#181818;stroke-width:1.0;"/></g><!--link MM to ODB2--><g id="link_MM_ODB2"><path d="M257.62,512.2469 C202.665,519.6869 126.297,540.8669 104.127,600.7969 C84.274,654.4669 84.274,1577.1289 104.127,1630.7969 C117.347,1666.5349 152.062,1684.1509 189.722,1692.3069 " fill="none" id="MM-ODB2" style="stroke:#181818;stroke-width:1.0;"/></g><!--link MM to ODB4--><g id="link_MM_ODB4"><path d="M257.62,512.2469 C202.665,519.6869 126.297,540.8669 104.127,600.7969 C90.346,638.0469 90.346,1278.5419 104.127,1315.7969 C132.339,1392.0609 210.141,1450.0909 263.474,1482.4249 " fill="none" id="MM-ODB4" style="stroke:#181818;stroke-width:1.0;"/></g><!--link ODB5 to TDAO--><g id="link_ODB5_TDAO"><path d="M448.633,1769.9759 C464.488,1762.5499 479.248,1752.8809 491.127,1740.2969 C528.865,1700.3209 501.856,1671.7839 521.127,1620.2969 C548.405,1547.4169 544.51,1518.2089 600.627,1464.2969 C631.964,1434.1909 677.549,1414.6259 712.55,1403.0529 " fill="none" id="ODB5-TDAO" style="stroke:#181818;stroke-width:1.0;"/></g><!--link DAPP7 to ODB6--><g id="link_DAPP7_ODB6"><path d="M189.828,1049.5769 C162.916,1056.7269 137.219,1069.1969 119.127,1090.2969 C6.433,1221.7069 84.6,1305.8059 91.127,1478.7969 C97.354,1643.8159 12.214,1723.4409 119.127,1849.2969 C133.87,1866.6519 153.72,1878.3139 175.177,1886.0479 " fill="none" id="DAPP7-to-ODB6" style="stroke:#181818;stroke-width:1.0;stroke-dasharray:7.0,7.0;"/><polygon fill="#181818" points="180.071,1887.7369,172.8672,1881.0209,175.3443,1886.1065,170.2586,1888.5836,180.071,1887.7369" style="stroke:#181818;stroke-width:1.0;"/><text fill="#000000" font-family="sans-serif" font-size="13" lengthAdjust="spacing" textLength="61" x="49.127" y="1474.8638">쳃nclude</text></g><!--link DAPP3 to ODB7--><g id="link_DAPP3_ODB7"><path d="M649.553,1056.9669 C631.482,1064.0769 614.292,1073.8569 600.627,1087.2969 C556.583,1130.6169 568.071,1158.7469 558.627,1219.7969 C542.975,1320.9759 537.463,1365.7209 600.627,1446.2969 C616.545,1466.6039 639.101,1481.8029 662.407,1493.0819 " fill="none" id="DAPP3-to-ODB7" style="stroke:#181818;stroke-width:1.0;stroke-dasharray:7.0,7.0;"/><polygon fill="#181818" points="667.076,1495.2859,660.6466,1487.8251,662.555,1493.1504,657.2298,1495.0588,667.076,1495.2859" style="stroke:#181818;stroke-width:1.0;"/><text fill="#000000" font-family="sans-serif" font-size="13" lengthAdjust="spacing" textLength="61" x="525.627" y="1232.8638">쳃nclude</text></g><!--link ODB8 to ODB7--><g id="link_ODB8_ODB7"><path d="M409.77,2057.7599 C437.016,2051.6459 466.22,2042.6119 491.127,2029.2969 C544.653,2000.6829 556.425,1986.0919 591.127,1936.2969 C674.162,1817.1499 727.897,1651.8459 750.856,1571.2849 " fill="none" id="ODB8-to-ODB7" style="stroke:#181818;stroke-width:1.0;stroke-dasharray:7.0,7.0;"/><polygon fill="#181818" points="752.324,1566.1029,746.022,1573.6716,750.961,1570.9135,753.719,1575.8524,752.324,1566.1029" style="stroke:#181818;stroke-width:1.0;"/><text fill="#000000" font-family="sans-serif" font-size="13" lengthAdjust="spacing" textLength="61" x="525.627" y="1932.3638">첿xtend</text></g><!--link ODB9 to ODB7--><g id="link_ODB9_ODB7"><path d="M415.652,1977.6619 C441.889,1971.6169 469.077,1961.8929 491.127,1946.2969 C561.86,1896.2689 686.574,1669.8249 739.156,1570.3769 " fill="none" id="ODB9-to-ODB7" style="stroke:#181818;stroke-width:1.0;stroke-dasharray:7.0,7.0;"/><polygon fill="#181818" points="741.604,1565.7379,733.8656,1571.8303,739.2702,1570.1598,740.9407,1575.5644,741.604,1565.7379" style="stroke:#181818;stroke-width:1.0;"/><text fill="#000000" font-family="sans-serif" font-size="13" lengthAdjust="spacing" textLength="61" x="525.627" y="1822.3638">첿xtend</text></g><!--reverse link ODB7 to DAPP9--><g id="link_ODB7_DAPP9"><path d="M850.074,1487.4639 C875.877,1475.4489 903.937,1461.2679 928.627,1446.2969 C1036.907,1380.6399 1153.567,1282.2679 1195.747,1245.6789 " fill="none" id="ODB7-backto-DAPP9" style="stroke:#181818;stroke-width:1.0;stroke-dasharray:7.0,7.0;"/><polygon fill="#181818" points="845.284,1489.6829,855.1317,1489.53,849.821,1487.5815,851.7695,1482.2708,845.284,1489.6829" style="stroke:#181818;stroke-width:1.0;"/><text fill="#000000" font-family="sans-serif" font-size="13" lengthAdjust="spacing" textLength="68" x="939.127" y="1393.3638">쳃ncludes</text></g><!--link DAPP12 to TDAO--><g id="link_DAPP12_TDAO"><path d="M363.209,1314.2539 C403.78,1330.4859 465.407,1353.1079 521.127,1365.2969 C586.22,1379.5359 663.008,1385.3389 712.462,1387.6959 " fill="none" id="DAPP12-TDAO" style="stroke:#181818;stroke-width:1.0;"/></g><!--link MM to DAPP12--><g id="link_MM_DAPP12"><path d="M257.62,512.2469 C202.665,519.6869 126.297,540.8669 104.127,600.7969 C91.83,634.0369 91.83,1205.5569 104.127,1238.7969 C121.383,1285.4429 176.04,1299.2839 225.663,1301.6089 " fill="none" id="MM-DAPP12" style="stroke:#181818;stroke-width:1.0;"/></g><!--link DAPP10 to TDAO--><g id="link_DAPP10_TDAO"><path d="M764.627,1149.8769 C764.627,1216.4669 764.627,1283.0519 764.627,1349.6389 " fill="none" id="DAPP10-TDAO" style="stroke:#181818;stroke-width:1.0;"/></g><!--link MM to NSE1--><g id="link_MM_NSE1"><path d="M257.506,499.6869 C216.117,491.6169 161.093,476.5469 119.127,449.2969 C90.068,430.4269 92.106,405.2969 104.127,372.7969 C116.645,338.9569 148.432,321.3669 183.743,312.6669 " fill="none" id="MM-NSE1" style="stroke:#181818;stroke-width:1.0;"/></g><!--link MM to NSE4--><g id="link_MM_NSE4"><path d="M257.375,508.8769 C202.236,505.6169 125.734,490.2069 104.127,431.7969 C85.084,380.3169 85.084,236.2769 104.127,184.7969 C118.826,145.0669 158.739,124.8569 200.099,114.7869 " fill="none" id="MM-NSE4" style="stroke:#181818;stroke-width:1.0;"/></g><!--link NSE3 to NSE4--><g id="link_NSE3_NSE4"><path d="M317.127,185.2269 C317.127,170.8569 317.127,153.6369 317.127,138.9469 " fill="none" id="NSE3-to-NSE4" style="stroke:#181818;stroke-width:1.0;stroke-dasharray:7.0,7.0;"/><polygon fill="#181818" points="317.127,133.6569,313.127,142.6569,317.127,138.6569,321.127,142.6569,317.127,133.6569" style="stroke:#181818;stroke-width:1.0;"/><text fill="#000000" font-family="sans-serif" font-size="13" lengthAdjust="spacing" textLength="68" x="271.627" y="163.8638">쳃ncludes</text></g><!--link NSE2 to ODB3--><g id="link_NSE2_ODB3"><path d="M198.195,418.9369 C170.826,426.0269 142.825,436.3269 119.127,451.2969 C102.432,461.8469 97.729,467.1869 91.127,485.7969 C88.601,492.9169 91.061,495.2369 91.127,502.7969 C92.683,681.6469 6,1973.7569 119.127,2112.2969 C137.106,2134.3149 163.435,2146.8223 191.059,2153.6273 " fill="none" id="NSE2-to-ODB3" style="stroke:#181818;stroke-width:1.0;stroke-dasharray:7.0,7.0;"/><polygon fill="#181818" points="196.231,2154.8326,188.3747,2148.8929,191.3617,2153.6969,186.5577,2156.6839,196.231,2154.8326" style="stroke:#181818;stroke-width:1.0;"/><text fill="#000000" font-family="sans-serif" font-size="13" lengthAdjust="spacing" textLength="61" x="49.127" y="498.8638">쳃nclude</text></g><!--link NSE3 to DAPP15--><g id="link_NSE3_DAPP15"><path d="M183.722,223.0669 C159.064,230.5669 135.854,242.7769 119.127,262.2969 C65.682,324.6469 64.211,553.2069 91.127,630.7969 C108.877,681.9669 167.844,699.9869 221.093,705.3969 " fill="none" id="NSE3-to-DAPP15" style="stroke:#181818;stroke-width:1.0;stroke-dasharray:7.0,7.0;"/><polygon fill="#181818" points="226.226,705.8769,217.6411,701.0499,221.2481,705.4076,216.8903,709.0145,226.226,705.8769" style="stroke:#181818;stroke-width:1.0;"/><text fill="#000000" font-family="sans-serif" font-size="13" lengthAdjust="spacing" textLength="61" x="49.127" y="626.8638">첿xtend</text></g><!--link MMP2 to ODB7--><g id="link_MMP2_ODB7"><path d="M694.1,459.0169 C643.727,462.3369 579.203,476.1569 545.877,521.7969 C486.446,603.1869 490.521,1344.5829 545.877,1428.7969 C569.187,1464.2589 608.939,1486.4749 648.214,1500.3659 " fill="none" id="MMP2-to-ODB7" style="stroke:#181818;stroke-width:1.0;stroke-dasharray:7.0,7.0;"/><polygon fill="#181818" points="653.001,1502.0189,645.8002,1495.2996,648.275,1500.3864,643.1882,1502.8612,653.001,1502.0189" style="stroke:#181818;stroke-width:1.0;"/></g><!--link MM to MMP3--><g id="link_MM_MMP3"><path d="M376.797,490.0569 C433.723,472.6469 522.692,446.1869 600.627,426.2969 C634.744,417.5869 673.193,409.0369 704.177,402.4569 " fill="none" id="MM-MMP3" style="stroke:#181818;stroke-width:1.0;"/></g><!--link MMP3 to MMP1--><g id="link_MMP3_MMP1"><path d="M764.627,371.7769 C764.627,358.7769 764.627,340.9769 764.627,325.2469 " fill="none" id="MMP3-to-MMP1" style="stroke:#181818;stroke-width:1.0;stroke-dasharray:7.0,7.0;"/><polygon fill="#181818" points="764.627,319.9969,760.627,328.9969,764.627,324.9969,768.627,328.9969,764.627,319.9969" style="stroke:#181818;stroke-width:1.0;"/><text fill="#000000" font-family="sans-serif" font-size="13" lengthAdjust="spacing" textLength="61" x="722.627" y="350.3638">쳃nclude</text></g><!--link MM to LP1--><g id="link_MM_LP1"><path d="M376.928,503.0869 C414.918,496.5669 462.447,481.9669 491.127,449.2969 C535.69,398.5269 492.944,361.6869 521.127,300.2969 C545.107,248.0569 548.982,223.5269 600.627,198.2969 C786.015,107.7469 1042.137,165.5469 1154.917,198.7069 " fill="none" id="MM-LP1" style="stroke:#181818;stroke-width:1.0;"/></g><!--link MM to LP2--><g id="link_MM_LP2"><path d="M376.919,499.5869 C413.24,491.6569 458.902,476.7969 491.127,449.2969 C530.712,415.5169 556.049,269.1469 600.627,242.2969 C725.503,167.0869 783.404,229.5869 928.627,242.2969 C934.247,242.7869 1073.267,267.5169 1154.497,282.0069 " fill="none" id="MM-LP2" style="stroke:#181818;stroke-width:1.0;"/></g><!--link MM to LP4--><g id="link_MM_LP4"><path d="M376.783,520.9069 C489.35,542.1569 741.13,575.2369 928.627,493.2969 C979.747,470.9569 967.047,429.8269 1016.127,403.2969 C1049.367,385.3369 1089.827,375.7769 1125.347,370.7269 " fill="none" id="MM-LP4" style="stroke:#181818;stroke-width:1.0;"/></g><!--link DV1 to LP1--><g id="link_DV1_LP1"><path d="M1142.367,655.3169 C1088.537,648.1369 1017.757,628.8269 981.627,577.7969 C974.717,568.0469 897.877,386.3269 1016.127,257.2969 C1039.177,232.1369 1073.357,220.3669 1106.807,215.4169 " fill="none" id="DV1-to-LP1" style="stroke:#181818;stroke-width:1.0;stroke-dasharray:7.0,7.0;"/><polygon fill="#181818" points="1112.157,214.6869,1102.6938,211.9578,1107.2042,215.372,1103.79,219.8824,1112.157,214.6869" style="stroke:#181818;stroke-width:1.0;"/><text fill="#000000" font-family="sans-serif" font-size="13" lengthAdjust="spacing" textLength="61" x="942.627" y="573.8638">쳃nclude</text></g><!--link DV1 to LP3--><g id="link_DV1_LP3"><path d="M1147.807,666.7269 C1094.157,668.7869 1020.857,661.4869 981.627,613.7969 C955.267,581.7569 895.377,599.1569 1016.127,493.2969 C1028.707,482.2669 1043.497,474.0369 1059.237,467.9469 " fill="none" id="DV1-to-LP3" style="stroke:#181818;stroke-width:1.0;stroke-dasharray:7.0,7.0;"/><polygon fill="#181818" points="1064.147,466.1269,1054.3171,465.5154,1059.4607,467.87,1057.1061,473.0135,1064.147,466.1269" style="stroke:#181818;stroke-width:1.0;"/><text fill="#000000" font-family="sans-serif" font-size="13" lengthAdjust="spacing" textLength="61" x="942.627" y="609.8638">쳃nclude</text></g><!--link DAPP14 to LP3--><g id="link_DAPP14_LP3"><path d="M854.913,710.0069 C909.067,704.5469 974.097,687.3669 1008.127,639.2969 C1026.897,612.7769 994.777,517.7869 1016.127,493.2969 C1026.967,480.8669 1040.547,471.7469 1055.467,465.1269 " fill="none" id="DAPP14-to-LP3" style="stroke:#181818;stroke-width:1.0;stroke-dasharray:7.0,7.0;"/><polygon fill="#181818" points="1060.147,463.1569,1050.3001,462.9628,1055.5388,465.0972,1053.4045,470.3359,1060.147,463.1569" style="stroke:#181818;stroke-width:1.0;"/><text fill="#000000" font-family="sans-serif" font-size="13" lengthAdjust="spacing" textLength="61" x="942.627" y="635.3638">쳃nclude</text></g><!--link LP to GMN99--><g id="link_LP_GMN99"><path d="M1394.3829,524.2969 C1395.1982,524.2969 1396.013,524.2969 1396.8271,524.2969 C1398.4553,524.2969 1400.0808,524.2969 1401.7031,524.2969 C1404.9477,524.2969 1408.1791,524.2969 1411.3922,524.2969 C1424.2443,524.2969 1436.802,524.2969 1448.727,524.2969 " fill="none" id="LP-GMN99" style="stroke:#181818;stroke-width:1.0;stroke-dasharray:7.0,7.0;"/></g><!--SRC=[XLRRRjiu47tNLmm2BB2BXTDOLfeBYW2ExSqMy4Mmt7JtQS5AZ4r45bsHgXiK_VUTeIuc9ILzSIBEESEPuSmXjT0fXyNudydgun8UrhFP4cRBsVhXNmZNgt0LZUVmAPh1P1pD8Y_bJngqX5niTneIaVDO2vbvwbba1vQpFHnO_CosFD8lw9RCbet5MkQbXHsvadlkUMODpXP5giLanqG62v7n_0oOWiMYDczulCj4p5AOZbV6ji5_F8ysODaM7PvDPvEnZ-OmD7Rw1tvu08NYCLC8UE0QNRRsWJN_Md2b6yxGfemFXrn-uw_JeE7vDY_Ykak9xZV0jCx5bq9prH17dHZt8jDOEZUke2UkX3nhaMtXztkM2gd_QE2N7QyXUzbpT5n7ligJgio4Vz_1pp3cxGiiE5D5pWrroZHh65Ssuv7duadmN-roRN6gRR0gZVccu_85M9f2Wli2onBu9ZK_dTI53LzA3NLPJf0XE2wHZkMLIO4DKnpGhUNDEK2gAwvZIvq0eowWgj56FlFi17IEwY-HfWsmqsoN7c9FJOmz_TyZmyPHrBbsG-4Ky38WlsG_KgF-z7vwYmKCp3WEglwboO01JMgvuaCRCsel11qlbrv9FK_aCJk_AnVX5ZvyuDyrpvAxknx0o0145gT5mYl4o47Sj13jM0FmoZ_ElXTTjvSz22SoFFfV85ekHjOcgXyIz426LeAFmnQWLTNtdNolmUiJCQ4gcKYcz-LnhwQkc5KDqHtIKbXMqtj7o3wPPbSrC868XhHarmI_n_-QnroGq5GRDGg0-D6R6xIODIdeLGro2nyppRUvq3GcgKPl2TqqUiUj6m4zECeMuhmBh3MCuvWhLHDQTm6oR7t3pojQhfCaOIubckAuHUHWW3-uHD8QIfaQGxc4gBzPdXnPpY72A0jrrbk75hcEu_eLCBdzN3kii3SutLw6cbLTj_B9bFqMAcdSv2nJUw7m0eQvLCgp-yrqWFljjxu3fnrDQOsm0_OobQntc8tfoZLHNiqKrEPcrYYJrwsbAfmNXwvdcg3En0oxSaPB7TW5E8Erb0cTbypnRMAtv1AVDivWKICTJj9UKspbHaxFSBtT-iZntzXcmvwnBmlTtiUPCNFUJpnlM9tnG4RWNWaKAxGM0eyyqr7IHwlW56Xrocqvhrdb1U6Sebtg1Vi-aVZgcQISPVOWL6-wi5V9LbcAQLIZi15x3d_YeAbTzL92MglcgMI9EiqM0fm2p-LM0KPn57hNF38GD3Br2UiShqnj1gM5VcYTDdDJj_ERYw-5I4YdcgJcOVUb-HiSC1DDPyRC8xb2Ecb4HtPGvVj1LNQ_Lz_IPbEZRU_ibqVD7BtsXdDGr21sGr14pgVlVWOUtcjOb7br_rkAKAttNVl3eDVKahDvY267JD3Kc8CooRNM9Yp_WWfdal2mtO1y_0y0]--></g></svg>